PathFileType	4	(X/Y/Z)	/tmp/tmpiz60ez2f/Subject7/MarkerData/Take_2_segment_4.trc
DataRate	CameraRate	NumFrames	NumMarkers	Units	OrigDataRate	OrigDataStartFrame	OrigNumFrames
50.003	50.003	10	39	m	50.003	750	2000
Frame#	Time	C7			CLAV			LANK			LASI			LBHD			LELB			LFHD			LFIN			LFRM			LHEE			LKNE			LPSI			LSHO			LTHI			LTIB			LTOE			LUPA			LWRA			LWRB			RANK			RASI			RBAK			RBHD			RELB			RFHD			RFIN			RFRM			RHEE			RKNE			RPSI			RSHO			RTHI			RTIB			RTOE			RUPA			RWRA			RWRB			STRN			T10		
		X1	Y1	Z1	X2	Y2	Z2	X3	Y3	Z3	X4	Y4	Z4	X5	Y5	Z5	X6	Y6	Z6	X7	Y7	Z7	X8	Y8	Z8	X9	Y9	Z9	X10	Y10	Z10	X11	Y11	Z11	X12	Y12	Z12	X13	Y13	Z13	X14	Y14	Z14	X15	Y15	Z15	X16	Y16	Z16	X17	Y17	Z17	X18	Y18	Z18	X19	Y19	Z19	X20	Y20	Z20	X21	Y21	Z21	X22	Y22	Z22	X23	Y23	Z23	X24	Y24	Z24	X25	Y25	Z25	X26	Y26	Z26	X27	Y27	Z27	X28	Y28	Z28	X29	Y29	Z29	X30	Y30	Z30	X31	Y31	Z31	X32	Y32	Z32	X33	Y33	Z33	X34	Y34	Z34	X35	Y35	Z35	X36	Y36	Z36	X37	Y37	Z37	X38	Y38	Z38	X39	Y39	Z39

751	175.019	0.818448	1.29731	-0.149534	0.826814	1.19726	-0.26352	0.571327	0.0991676	0.215641	0.676988	0.779606	-0.155768	0.720098	1.43971	-0.205915	0.678998	1.11036	-0.454278	0.829105	1.45234	-0.358322	1.02833	1.04737	-0.597017	0.81265	1.05733	-0.527206	0.653159	0.0357998	0.267846	0.514598	0.410306	-0.0242843	0.708203	0.823667	-0.0149014	0.663268	1.2671	-0.226226	0.560366	0.573488	-0.0732959	0.53293	0.268453	0.115604	0.472	0.0337079	0.0681126	0.639302	1.16947	-0.331797	0.958369	1.10754	-0.560239	0.938272	1.03628	-0.602574	1.11181	0.0715836	-0.327978	0.937543	0.807007	-0.221444	0.905346	1.18116	-0.0608967	0.810151	1.44989	-0.153576	1.21462	1.09585	-0.28044	0.907028	1.46508	-0.292605	1.3858	1.06123	-0.542421	1.32337	1.05319	-0.370918	1.14316	0.0180773	-0.245471	0.954559	0.444254	-0.36918	0.962335	0.841884	-0.0459243	0.981918	1.24777	-0.226887	0.956453	0.646963	-0.29177	1.05208	0.251766	-0.363169	0.929849	0.0193638	-0.401953	1.1281	1.14706	-0.255335	1.33616	0.995887	-0.529621	1.40619	1.03085	-0.487959	0.811281	1.02645	-0.290783	0.823795	0.978985	-0.0234619
752	175.039	0.815386	1.29762	-0.146086	0.822616	1.19777	-0.260404	0.57122	0.0990365	0.215579	0.674515	0.779695	-0.151863	0.71659	1.44008	-0.2011	0.672448	1.11362	-0.450478	0.823936	1.45311	-0.354592	1.02195	1.05626	-0.595001	0.806395	1.06285	-0.524434	0.65359	0.0359859	0.267514	0.512043	0.410479	-0.02285	0.706883	0.823612	-0.0111903	0.65979	1.26764	-0.220819	0.557984	0.573873	-0.0704561	0.531493	0.268293	0.116162	0.471735	0.0336611	0.0682673	0.634257	1.17131	-0.326858	0.951207	1.11516	-0.557679	0.931998	1.04399	-0.600563	1.11173	0.0716458	-0.327664	0.93443	0.80721	-0.219878	0.903012	1.1813	-0.0585016	0.807177	1.45011	-0.149616	1.21053	1.094	-0.278165	0.902565	1.46562	-0.289704	1.38187	1.05481	-0.539056	1.31896	1.04925	-0.367987	1.14318	0.0178801	-0.245557	0.953352	0.444386	-0.367326	0.960627	0.841285	-0.0454567	0.978177	1.2483	-0.22525	0.954226	0.647198	-0.290151	1.05145	0.25197	-0.362119	0.92983	0.0193635	-0.401922	1.1242	1.146	-0.253647	1.33167	0.989902	-0.525842	1.40185	1.02477	-0.484373	0.806676	1.02684	-0.287854	0.822146	0.979061	-0.0205297
753	175.059	0.812369	1.29795	-0.142602	0.818416	1.19827	-0.257233	0.571169	0.0989037	0.215512	0.672067	0.779804	-0.147866	0.713123	1.44046	-0.196158	0.665842	1.11683	-0.446469	0.818704	1.45392	-0.350825	1.01538	1.06522	-0.592881	0.800024	1.06838	-0.521483	0.654072	0.0361279	0.2671	0.509533	0.410694	-0.021341	0.705648	0.823577	-0.00741245	0.656342	1.26817	-0.215303	0.555658	0.574285	-0.0675437	0.53014	0.268167	0.116773	0.471441	0.0336238	0.068444	0.629208	1.17312	-0.321752	0.943863	1.12282	-0.554988	0.925545	1.05174	-0.598404	1.11164	0.0716912	-0.327367	0.931299	0.807397	-0.218343	0.900735	1.18142	-0.0561348	0.804272	1.45032	-0.145608	1.20641	1.09217	-0.276023	0.898093	1.46618	-0.286767	1.37771	1.04838	-0.535878	1.31445	1.04535	-0.36523	1.14321	0.0176874	-0.245674	0.952154	0.444503	-0.365455	0.958899	0.840522	-0.0452021	0.974427	1.24884	-0.22365	0.951989	0.647414	-0.288525	1.05083	0.252163	-0.361066	0.929819	0.0193586	-0.40189	1.12027	1.14495	-0.25208	1.32694	0.983949	-0.522266	1.39732	1.0187	-0.480972	0.80203	1.02723	-0.284855	0.820589	0.979154	-0.0175569
754	175.079	0.809407	1.29826	-0.139082	0.814214	1.19877	-0.254004	0.57118	0.0987593	0.215443	0.669643	0.779922	-0.143775	0.709705	1.44084	-0.191088	0.659186	1.12	-0.442255	0.813398	1.45479	-0.347035	1.00861	1.07424	-0.59065	0.793542	1.0739	-0.518353	0.654605	0.036223	0.266602	0.507063	0.410953	-0.0197436	0.704497	0.823555	-0.00356385	0.652933	1.26871	-0.209675	0.553385	0.574724	-0.0645524	0.528863	0.26807	0.117446	0.471117	0.0335966	0.0686426	0.624162	1.17491	-0.316483	0.936347	1.13049	-0.552153	0.918917	1.05952	-0.596093	1.1116	0.0716891	-0.32703	0.928151	0.807574	-0.216825	0.898522	1.18151	-0.0537866	0.801439	1.45049	-0.141576	1.20224	1.09034	-0.274031	0.893605	1.46675	-0.283804	1.37331	1.04193	-0.532895	1.30983	1.04146	-0.362639	1.14327	0.0175263	-0.245791	0.950985	0.44461	-0.363572	0.957204	0.839765	-0.0449582	0.970668	1.24937	-0.22209	0.949757	0.647616	-0.286893	1.05024	0.252345	-0.360014	0.929817	0.0193503	-0.401858	1.11631	1.14386	-0.250648	1.32196	0.978018	-0.518898	1.39259	1.01263	-0.47776	0.797345	1.02759	-0.281788	0.819113	0.979246	-0.0145555
755	175.099	0.806508	1.29857	-0.135522	0.810014	1.19925	-0.250714	0.571253	0.098596	0.215376	0.667248	0.780035	-0.139596	0.706344	1.44122	-0.185892	0.652483	1.12313	-0.437843	0.808011	1.45568	-0.343221	1.00165	1.0833	-0.588302	0.786949	1.07942	-0.515049	0.655188	0.0362787	0.266025	0.504625	0.411257	-0.0180447	0.70343	0.82354	0.000355497	0.649571	1.26924	-0.203942	0.551164	0.575192	-0.0614723	0.527646	0.267998	0.11819	0.470762	0.0335803	0.0688656	0.619122	1.17669	-0.311055	0.928666	1.13817	-0.549166	0.912117	1.06733	-0.593629	1.11164	0.0716109	-0.326606	0.924989	0.807752	-0.21531	0.896386	1.18159	-0.0514376	0.798684	1.4506	-0.137543	1.19799	1.08847	-0.272194	0.889099	1.46734	-0.280821	1.36866	1.03544	-0.530107	1.3051	1.03758	-0.360202	1.14336	0.0173988	-0.245898	0.94986	0.444713	-0.361685	0.955567	0.839118	-0.0445981	0.9669	1.24987	-0.220564	0.947541	0.647811	-0.28526	1.04968	0.252514	-0.358969	0.929823	0.0193413	-0.401826	1.11231	1.14274	-0.249349	1.3167	0.972102	-0.515722	1.38765	1.00656	-0.474734	0.79263	1.02793	-0.278654	0.817704	0.979318	-0.011541
756	175.119	0.803675	1.29886	-0.131916	0.80582	1.19971	-0.247356	0.571384	0.0984117	0.215312	0.664883	0.780134	-0.135341	0.703052	1.44159	-0.180569	0.645737	1.12624	-0.433241	0.802546	1.45659	-0.33937	0.994494	1.09239	-0.585837	0.780246	1.08494	-0.511574	0.655823	0.0363045	0.265379	0.502213	0.411607	-0.0162326	0.702443	0.823528	0.00433999	0.646262	1.26978	-0.198109	0.548992	0.575693	-0.0582925	0.526475	0.267948	0.119007	0.470371	0.0335747	0.0691162	0.614089	1.17846	-0.305475	0.920823	1.14585	-0.546024	0.905145	1.07515	-0.591014	1.11176	0.0714626	-0.326102	0.921821	0.807946	-0.213783	0.894337	1.18168	-0.0490657	0.796007	1.45066	-0.133523	1.19365	1.08653	-0.270505	0.884572	1.46794	-0.277821	1.36373	1.02894	-0.527509	1.30024	1.03368	-0.357905	1.14345	0.0172931	-0.246001	0.948783	0.444815	-0.359799	0.953997	0.83864	-0.0440531	0.96312	1.25033	-0.219054	0.945345	0.648006	-0.283629	1.04915	0.252674	-0.357931	0.929831	0.0193337	-0.401796	1.10827	1.14156	-0.248166	1.31115	0.966196	-0.512696	1.38247	1.00049	-0.471883	0.787897	1.02825	-0.275455	0.816352	0.97936	-0.00852485
757	175.139	0.800903	1.29914	-0.128261	0.801633	1.20016	-0.243922	0.571557	0.0982089	0.21525	0.66255	0.780218	-0.131021	0.699837	1.44196	-0.175121	0.638946	1.12932	-0.428454	0.797012	1.4575	-0.335451	0.987135	1.10152	-0.583257	0.77343	1.09046	-0.507937	0.656501	0.0363067	0.264672	0.499827	0.412001	-0.0143011	0.701533	0.823521	0.00837982	0.643009	1.27031	-0.192184	0.546869	0.576227	-0.0550049	0.525338	0.267917	0.119898	0.469944	0.0335781	0.0693953	0.609068	1.18023	-0.29975	0.912814	1.15353	-0.542733	0.897995	1.08299	-0.588256	1.11191	0.0712838	-0.325578	0.918647	0.808164	-0.212237	0.892374	1.18178	-0.0466555	0.793407	1.45068	-0.129511	1.18921	1.08452	-0.268939	0.880019	1.46854	-0.274798	1.3585	1.02242	-0.525091	1.29523	1.02975	-0.35574	1.14354	0.0171952	-0.246105	0.947753	0.444918	-0.357919	0.952491	0.838359	-0.0432974	0.959325	1.25077	-0.217538	0.94317	0.648206	-0.282006	1.04866	0.252828	-0.3569	0.929838	0.0193288	-0.401769	1.10417	1.14032	-0.247062	1.30532	0.960296	-0.509767	1.37705	0.994429	-0.46919	0.783156	1.02856	-0.272188	0.815048	0.979374	-0.00551015
758	175.159	0.79818	1.29942	-0.124554	0.797454	1.20059	-0.240405	0.571752	0.0979933	0.215186	0.660248	0.780292	-0.126644	0.696708	1.44234	-0.169556	0.632109	1.13238	-0.423491	0.791425	1.45841	-0.331432	0.979563	1.11066	-0.580567	0.766495	1.09597	-0.504146	0.657209	0.0362876	0.263915	0.497475	0.412432	-0.0122536	0.700695	0.823519	0.0124644	0.63981	1.27084	-0.186174	0.544789	0.576791	-0.051609	0.524225	0.2679	0.120857	0.469483	0.033587	0.069698	0.604059	1.18199	-0.293885	0.904636	1.1612	-0.539301	0.890656	1.09084	-0.585364	1.11206	0.0711228	-0.325102	0.915465	0.808413	-0.210668	0.890483	1.1819	-0.0442036	0.790886	1.45069	-0.125481	1.18464	1.08246	-0.26746	0.875437	1.46916	-0.271743	1.35295	1.01592	-0.522848	1.29002	1.0258	-0.353702	1.14361	0.0170977	-0.246217	0.946765	0.445023	-0.356044	0.951041	0.838278	-0.0423417	0.955511	1.25118	-0.215994	0.941017	0.648415	-0.280397	1.0482	0.252979	-0.355873	0.929843	0.0193269	-0.401747	1.10001	1.13905	-0.245993	1.2992	0.954394	-0.506876	1.37136	0.9884	-0.466648	0.778411	1.02888	-0.268853	0.813788	0.979372	-0.00249237
759	175.179	0.795492	1.29971	-0.120792	0.793278	1.20103	-0.236804	0.571944	0.0977721	0.215117	0.657973	0.780366	-0.12221	0.693667	1.44271	-0.163883	0.62522	1.13543	-0.418354	0.785803	1.4593	-0.327282	0.971763	1.11979	-0.577772	0.759428	1.10148	-0.500208	0.657922	0.0362481	0.263124	0.495166	0.412888	-0.0101075	0.699924	0.823527	0.0165862	0.636662	1.27138	-0.180079	0.542753	0.577375	-0.0481145	0.523132	0.267893	0.121872	0.468999	0.0335968	0.0700145	0.599061	1.18374	-0.287882	0.89628	1.16885	-0.535731	0.88311	1.0987	-0.582346	1.11216	0.0710107	-0.324717	0.912261	0.808694	-0.209075	0.888641	1.18204	-0.0417173	0.788444	1.4507	-0.121397	1.17996	1.08038	-0.26604	0.870819	1.46979	-0.268651	1.34702	1.00943	-0.520776	1.28461	1.02185	-0.351793	1.14366	0.0170007	-0.246335	0.945814	0.445129	-0.35417	0.949632	0.838373	-0.041227	0.951672	1.25158	-0.214406	0.938881	0.648632	-0.278806	1.04776	0.25313	-0.354848	0.929845	0.019328	-0.40173	1.09577	1.13777	-0.244923	1.2928	0.948487	-0.50399	1.36539	0.982417	-0.464264	0.773659	1.02929	-0.265451	0.812567	0.97937	0.000536112
760	175.199	0.792826	1.3	-0.116971	0.789097	1.20147	-0.233122	0.572113	0.0975512	0.215041	0.655717	0.780454	-0.117712	0.690712	1.4431	-0.158111	0.618266	1.13846	-0.413042	0.780163	1.46019	-0.322983	0.963717	1.12889	-0.574874	0.752206	1.10699	-0.496126	0.658619	0.0361907	0.262319	0.492918	0.413353	-0.00789334	0.699213	0.823546	0.0207426	0.633557	1.27193	-0.173899	0.540763	0.577966	-0.0445401	0.522058	0.267888	0.122925	0.468503	0.0336037	0.0703328	0.594067	1.1855	-0.281735	0.887741	1.17646	-0.532021	0.875335	1.10654	-0.579204	1.11221	0.0709537	-0.324425	0.909016	0.809005	-0.207451	0.886824	1.18219	-0.0392082	0.78608	1.45077	-0.117222	1.17516	1.07832	-0.264664	0.86616	1.47042	-0.265514	1.34071	1.00299	-0.51887	1.27898	1.01791	-0.350016	1.14371	0.0169081	-0.246458	0.944894	0.445234	-0.352287	0.948245	0.838605	-0.040012	0.947804	1.25197	-0.212767	0.936757	0.648857	-0.277234	1.04734	0.253282	-0.353822	0.929846	0.0193318	-0.401715	1.09144	1.1365	-0.243831	1.2861	0.942576	-0.501108	1.35911	0.976491	-0.462054	0.768896	1.02984	-0.261982	0.81138	0.979381	0.00358162
